IMDB:  http://www.imdb.com/title/tt1857797/

Language: Mandarin
Subtitles: Chinese (hardcoded), English (srt file)


General
Complete name                            : Naked Soldier 2012 HDTV x264 AC3-SSN.mkv
Format                                   : Matroska
Format version                           : Version 2
File size                                : 800 MiB
Duration                                 : 1h 30mn
Overall bit rate                         : 1 241 Kbps
Encoded date                             : UTC 2012-09-25 09:19:09
Writing application                      : mkvmerge v5.8.0 ('No Sleep / Pillow') built on Sep  2 2012 15:37:04
Writing library                          : libebml v1.2.3 + libmatroska v1.3.0

Video
ID                                       : 1
Format                                   : AVC
Format/Info                              : Advanced Video Codec
Format profile                           : High@L4.1
Format settings, CABAC                   : Yes
Format settings, ReFrames                : 5 frames
Codec ID                                 : V_MPEG4/ISO/AVC
Duration                                 : 1h 30mn
Bit rate                                 : 1 049 Kbps
Width                                    : 854 pixels
Height                                   : 362 pixels
Display aspect ratio                     : 2.35:1
Original display aspect ratio            : 2.35:1
Frame rate mode                          : Constant
Frame rate                               : 24.000 fps
Color space                              : YUV
Chroma subsampling                       : 4:2:0
Bit depth                                : 8 bits
Scan type                                : Progressive
Bits/(Pixel*Frame)                       : 0.170
Stream size                              : 661 MiB (83%)
Writing library                          : x264 core 128 r2216+686+33 35a79b6 tMod+MixAQ [8-bit@4:2:0 X86_64]
Language                                 : English
Default                                  : Yes
Forced                                   : No

Audio
ID                                       : 2
Format                                   : AC-3
Format/Info                              : Audio Coding 3
Mode extension                           : CM (complete main)
Format settings, Endianness              : Big
Codec ID                                 : A_AC3
Duration                                 : 1h 30mn
Bit rate mode                            : Constant
Bit rate                                 : 192 Kbps
Channel(s)                               : 2 channels
Channel positions                        : Front: L R
Sampling rate                            : 44.1 KHz
Bit depth                                : 16 bits
Compression mode                         : Lossy
Stream size                              : 124 MiB (15%)
Default                                  : Yes
Forced                                   : No

 
http://2.firepic.org/2/images/2012-09/25/r7xi5e4rilht.png
 
http://2.firepic.org/2/images/2012-09/25/z5ic6ud9uor0.png